<mxfile host="Electron" agent="Mozilla/5.0 (X11; Linux x86_64) AppleWebKit/537.36 (KHTML, like Gecko) draw.io/27.0.5 Chrome/134.0.6998.205 Electron/35.3.0 Safari/537.36" version="27.0.5">
  <diagram name="Página-1" id="WcJrx3Q3NLZrRDW2iyEN">
    <mxGraphModel dx="1699" dy="531" grid="1" gridSize="10" guides="1" tooltips="1" connect="1" arrows="1" fold="1" page="1" pageScale="1" pageWidth="827" pageHeight="1169" math="0" shadow="0">
      <root>
        <mxCell id="CCFgdeYhnKsUGpOBp8zD-0" />
        <mxCell id="CCFgdeYhnKsUGpOBp8zD-1" parent="CCFgdeYhnKsUGpOBp8zD-0" />
        <mxCell id="HtLL5q-RzL55egC5N3NP-31" style="edgeStyle=orthogonalEdgeStyle;rounded=0;orthogonalLoop=1;jettySize=auto;html=1;exitX=0.5;exitY=1;exitDx=0;exitDy=0;exitPerimeter=0;entryX=0.5;entryY=0;entryDx=0;entryDy=0;fillColor=#dae8fc;strokeColor=#6c8ebf;" parent="CCFgdeYhnKsUGpOBp8zD-1" source="HtLL5q-RzL55egC5N3NP-0" target="HtLL5q-RzL55egC5N3NP-1" edge="1">
          <mxGeometry relative="1" as="geometry" />
        </mxCell>
        <mxCell id="HtLL5q-RzL55egC5N3NP-0" value="Inicio" style="strokeWidth=2;html=1;shape=mxgraph.flowchart.start_2;whiteSpace=wrap;fillColor=#dae8fc;strokeColor=#6c8ebf;" parent="CCFgdeYhnKsUGpOBp8zD-1" vertex="1">
          <mxGeometry x="120" y="40" width="100" height="100" as="geometry" />
        </mxCell>
        <mxCell id="HtLL5q-RzL55egC5N3NP-32" style="edgeStyle=orthogonalEdgeStyle;rounded=0;orthogonalLoop=1;jettySize=auto;html=1;exitX=0.5;exitY=1;exitDx=0;exitDy=0;fillColor=#dae8fc;strokeColor=#6c8ebf;" parent="CCFgdeYhnKsUGpOBp8zD-1" source="HtLL5q-RzL55egC5N3NP-1" target="HtLL5q-RzL55egC5N3NP-2" edge="1">
          <mxGeometry relative="1" as="geometry" />
        </mxCell>
        <mxCell id="HtLL5q-RzL55egC5N3NP-1" value="Llegada del cliente" style="rounded=1;whiteSpace=wrap;html=1;absoluteArcSize=1;arcSize=14;strokeWidth=2;fillColor=#dae8fc;strokeColor=#6c8ebf;" parent="CCFgdeYhnKsUGpOBp8zD-1" vertex="1">
          <mxGeometry x="120" y="230" width="100" height="100" as="geometry" />
        </mxCell>
        <mxCell id="HtLL5q-RzL55egC5N3NP-33" value="Sí" style="edgeStyle=orthogonalEdgeStyle;rounded=0;orthogonalLoop=1;jettySize=auto;html=1;exitX=0.5;exitY=1;exitDx=0;exitDy=0;exitPerimeter=0;entryX=0.5;entryY=0;entryDx=0;entryDy=0;fillColor=#dae8fc;strokeColor=#6c8ebf;" parent="CCFgdeYhnKsUGpOBp8zD-1" source="HtLL5q-RzL55egC5N3NP-2" target="HtLL5q-RzL55egC5N3NP-4" edge="1">
          <mxGeometry relative="1" as="geometry" />
        </mxCell>
        <mxCell id="HtLL5q-RzL55egC5N3NP-34" value="No" style="edgeStyle=orthogonalEdgeStyle;rounded=0;orthogonalLoop=1;jettySize=auto;html=1;exitX=1;exitY=0.5;exitDx=0;exitDy=0;exitPerimeter=0;entryX=0;entryY=0.5;entryDx=0;entryDy=0;fillColor=#dae8fc;strokeColor=#6c8ebf;" parent="CCFgdeYhnKsUGpOBp8zD-1" source="HtLL5q-RzL55egC5N3NP-2" target="HtLL5q-RzL55egC5N3NP-6" edge="1">
          <mxGeometry relative="1" as="geometry" />
        </mxCell>
        <mxCell id="HtLL5q-RzL55egC5N3NP-2" value="¿El medicamento requiere receta?" style="strokeWidth=2;html=1;shape=mxgraph.flowchart.decision;whiteSpace=wrap;fillColor=#dae8fc;strokeColor=#6c8ebf;" parent="CCFgdeYhnKsUGpOBp8zD-1" vertex="1">
          <mxGeometry x="120" y="450" width="100" height="100" as="geometry" />
        </mxCell>
        <mxCell id="HtLL5q-RzL55egC5N3NP-3" value="Regresar receta y dar indicaciones" style="rounded=1;whiteSpace=wrap;html=1;absoluteArcSize=1;arcSize=14;strokeWidth=2;fillColor=#dae8fc;strokeColor=#6c8ebf;" parent="CCFgdeYhnKsUGpOBp8zD-1" vertex="1">
          <mxGeometry x="120" y="1100" width="100" height="100" as="geometry" />
        </mxCell>
        <mxCell id="HtLL5q-RzL55egC5N3NP-4" value="Validar datos de la receta" style="rounded=1;whiteSpace=wrap;html=1;absoluteArcSize=1;arcSize=14;strokeWidth=2;fillColor=#dae8fc;strokeColor=#6c8ebf;" parent="CCFgdeYhnKsUGpOBp8zD-1" vertex="1">
          <mxGeometry x="120" y="660" width="100" height="100" as="geometry" />
        </mxCell>
        <mxCell id="HtLL5q-RzL55egC5N3NP-36" value="No" style="edgeStyle=orthogonalEdgeStyle;rounded=0;orthogonalLoop=1;jettySize=auto;html=1;exitX=0.5;exitY=1;exitDx=0;exitDy=0;exitPerimeter=0;entryX=0.5;entryY=0;entryDx=0;entryDy=0;fillColor=#dae8fc;strokeColor=#6c8ebf;" parent="CCFgdeYhnKsUGpOBp8zD-1" source="HtLL5q-RzL55egC5N3NP-5" target="HtLL5q-RzL55egC5N3NP-3" edge="1">
          <mxGeometry relative="1" as="geometry" />
        </mxCell>
        <mxCell id="HtLL5q-RzL55egC5N3NP-38" value="Sí" style="edgeStyle=orthogonalEdgeStyle;rounded=0;orthogonalLoop=1;jettySize=auto;html=1;exitX=1;exitY=0.5;exitDx=0;exitDy=0;exitPerimeter=0;entryX=0.5;entryY=1;entryDx=0;entryDy=0;fillColor=#dae8fc;strokeColor=#6c8ebf;" parent="CCFgdeYhnKsUGpOBp8zD-1" source="HtLL5q-RzL55egC5N3NP-5" target="HtLL5q-RzL55egC5N3NP-6" edge="1">
          <mxGeometry relative="1" as="geometry" />
        </mxCell>
        <mxCell id="HtLL5q-RzL55egC5N3NP-5" value="¿Son correctos?" style="strokeWidth=2;html=1;shape=mxgraph.flowchart.decision;whiteSpace=wrap;fillColor=#dae8fc;strokeColor=#6c8ebf;" parent="CCFgdeYhnKsUGpOBp8zD-1" vertex="1">
          <mxGeometry x="120" y="890" width="100" height="100" as="geometry" />
        </mxCell>
        <mxCell id="HtLL5q-RzL55egC5N3NP-6" value="Ingresar registro de medicamento" style="rounded=1;whiteSpace=wrap;html=1;absoluteArcSize=1;arcSize=14;strokeWidth=2;fillColor=#dae8fc;strokeColor=#6c8ebf;" parent="CCFgdeYhnKsUGpOBp8zD-1" vertex="1">
          <mxGeometry x="320" y="560" width="100" height="100" as="geometry" />
        </mxCell>
        <mxCell id="HtLL5q-RzL55egC5N3NP-40" value="Sí" style="edgeStyle=orthogonalEdgeStyle;rounded=0;orthogonalLoop=1;jettySize=auto;html=1;exitX=0.5;exitY=0;exitDx=0;exitDy=0;exitPerimeter=0;entryX=0.5;entryY=1;entryDx=0;entryDy=0;fillColor=#d5e8d4;strokeColor=#82b366;" parent="CCFgdeYhnKsUGpOBp8zD-1" source="HtLL5q-RzL55egC5N3NP-7" target="HtLL5q-RzL55egC5N3NP-8" edge="1">
          <mxGeometry relative="1" as="geometry" />
        </mxCell>
        <mxCell id="HtLL5q-RzL55egC5N3NP-42" value="No" style="edgeStyle=orthogonalEdgeStyle;rounded=0;orthogonalLoop=1;jettySize=auto;html=1;exitX=0.5;exitY=1;exitDx=0;exitDy=0;exitPerimeter=0;entryX=0.5;entryY=0;entryDx=0;entryDy=0;fillColor=#d5e8d4;strokeColor=#82b366;" parent="CCFgdeYhnKsUGpOBp8zD-1" source="HtLL5q-RzL55egC5N3NP-7" target="HtLL5q-RzL55egC5N3NP-10" edge="1">
          <mxGeometry relative="1" as="geometry" />
        </mxCell>
        <mxCell id="HtLL5q-RzL55egC5N3NP-7" value="¿Hay en existencia?" style="strokeWidth=2;html=1;shape=mxgraph.flowchart.decision;whiteSpace=wrap;fillColor=#d5e8d4;strokeColor=#82b366;" parent="CCFgdeYhnKsUGpOBp8zD-1" vertex="1">
          <mxGeometry x="520" y="560" width="100" height="100" as="geometry" />
        </mxCell>
        <mxCell id="HtLL5q-RzL55egC5N3NP-41" style="edgeStyle=orthogonalEdgeStyle;rounded=0;orthogonalLoop=1;jettySize=auto;html=1;exitX=0.5;exitY=0;exitDx=0;exitDy=0;entryX=0.5;entryY=1;entryDx=0;entryDy=0;fillColor=#d5e8d4;strokeColor=#82b366;" parent="CCFgdeYhnKsUGpOBp8zD-1" source="HtLL5q-RzL55egC5N3NP-8" target="HtLL5q-RzL55egC5N3NP-9" edge="1">
          <mxGeometry relative="1" as="geometry" />
        </mxCell>
        <mxCell id="HtLL5q-RzL55egC5N3NP-8" value="Inventario" style="rounded=1;whiteSpace=wrap;html=1;absoluteArcSize=1;arcSize=14;strokeWidth=2;fillColor=#d5e8d4;strokeColor=#82b366;" parent="CCFgdeYhnKsUGpOBp8zD-1" vertex="1">
          <mxGeometry x="520" y="350" width="100" height="100" as="geometry" />
        </mxCell>
        <mxCell id="HtLL5q-RzL55egC5N3NP-48" style="edgeStyle=orthogonalEdgeStyle;rounded=0;orthogonalLoop=1;jettySize=auto;html=1;exitX=1;exitY=0.5;exitDx=0;exitDy=0;entryX=0;entryY=0.5;entryDx=0;entryDy=0;fillColor=#e1d5e7;strokeColor=#9673a6;" parent="CCFgdeYhnKsUGpOBp8zD-1" source="HtLL5q-RzL55egC5N3NP-9" target="HtLL5q-RzL55egC5N3NP-12" edge="1">
          <mxGeometry relative="1" as="geometry" />
        </mxCell>
        <mxCell id="HtLL5q-RzL55egC5N3NP-9" value="Opciones de disponibilidad del medicamento" style="rounded=1;whiteSpace=wrap;html=1;absoluteArcSize=1;arcSize=14;strokeWidth=2;fillColor=#d5e8d4;strokeColor=#82b366;" parent="CCFgdeYhnKsUGpOBp8zD-1" vertex="1">
          <mxGeometry x="520" y="80" width="100" height="100" as="geometry" />
        </mxCell>
        <mxCell id="HtLL5q-RzL55egC5N3NP-43" style="edgeStyle=orthogonalEdgeStyle;rounded=0;orthogonalLoop=1;jettySize=auto;html=1;exitX=0.5;exitY=1;exitDx=0;exitDy=0;entryX=0.5;entryY=0;entryDx=0;entryDy=0;fillColor=#d5e8d4;strokeColor=#82b366;" parent="CCFgdeYhnKsUGpOBp8zD-1" source="HtLL5q-RzL55egC5N3NP-10" target="HtLL5q-RzL55egC5N3NP-11" edge="1">
          <mxGeometry relative="1" as="geometry" />
        </mxCell>
        <mxCell id="HtLL5q-RzL55egC5N3NP-10" value="Informar al cliente" style="rounded=1;whiteSpace=wrap;html=1;absoluteArcSize=1;arcSize=14;strokeWidth=2;fillColor=#d5e8d4;strokeColor=#82b366;" parent="CCFgdeYhnKsUGpOBp8zD-1" vertex="1">
          <mxGeometry x="520" y="750" width="100" height="100" as="geometry" />
        </mxCell>
        <mxCell id="HtLL5q-RzL55egC5N3NP-11" value="Registrar demanda inclumplida" style="rounded=1;whiteSpace=wrap;html=1;absoluteArcSize=1;arcSize=14;strokeWidth=2;fillColor=#d5e8d4;strokeColor=#82b366;" parent="CCFgdeYhnKsUGpOBp8zD-1" vertex="1">
          <mxGeometry x="520" y="940" width="100" height="100" as="geometry" />
        </mxCell>
        <mxCell id="HtLL5q-RzL55egC5N3NP-12" value="Información del precio" style="rounded=1;whiteSpace=wrap;html=1;absoluteArcSize=1;arcSize=14;strokeWidth=2;fillColor=#e1d5e7;strokeColor=#9673a6;shadow=0;glass=0;" parent="CCFgdeYhnKsUGpOBp8zD-1" vertex="1">
          <mxGeometry x="760" y="80" width="100" height="100" as="geometry" />
        </mxCell>
        <mxCell id="HtLL5q-RzL55egC5N3NP-46" value="Sí" style="edgeStyle=orthogonalEdgeStyle;rounded=0;orthogonalLoop=1;jettySize=auto;html=1;exitX=1;exitY=0.5;exitDx=0;exitDy=0;exitPerimeter=0;entryX=0;entryY=0.5;entryDx=0;entryDy=0;fillColor=#ffe6cc;strokeColor=#d79b00;" parent="CCFgdeYhnKsUGpOBp8zD-1" source="HtLL5q-RzL55egC5N3NP-13" target="HtLL5q-RzL55egC5N3NP-14" edge="1">
          <mxGeometry relative="1" as="geometry" />
        </mxCell>
        <mxCell id="HtLL5q-RzL55egC5N3NP-13" value="Existe capital de compra" style="strokeWidth=2;html=1;shape=mxgraph.flowchart.decision;whiteSpace=wrap;fillColor=#ffe6cc;strokeColor=#d79b00;" parent="CCFgdeYhnKsUGpOBp8zD-1" vertex="1">
          <mxGeometry x="727" y="940" width="100" height="100" as="geometry" />
        </mxCell>
        <mxCell id="HtLL5q-RzL55egC5N3NP-47" style="edgeStyle=orthogonalEdgeStyle;rounded=0;orthogonalLoop=1;jettySize=auto;html=1;exitX=1;exitY=0.5;exitDx=0;exitDy=0;entryX=0;entryY=0.5;entryDx=0;entryDy=0;fillColor=#ffe6cc;strokeColor=#d79b00;" parent="CCFgdeYhnKsUGpOBp8zD-1" source="HtLL5q-RzL55egC5N3NP-14" target="HtLL5q-RzL55egC5N3NP-15" edge="1">
          <mxGeometry relative="1" as="geometry" />
        </mxCell>
        <mxCell id="HtLL5q-RzL55egC5N3NP-14" value="Catalogo de proveedores" style="rounded=1;whiteSpace=wrap;html=1;absoluteArcSize=1;arcSize=14;strokeWidth=2;fillColor=#ffe6cc;strokeColor=#d79b00;" parent="CCFgdeYhnKsUGpOBp8zD-1" vertex="1">
          <mxGeometry x="940" y="940" width="100" height="100" as="geometry" />
        </mxCell>
        <mxCell id="HtLL5q-RzL55egC5N3NP-15" value="Orden de compra" style="rounded=1;whiteSpace=wrap;html=1;absoluteArcSize=1;arcSize=14;strokeWidth=2;fillColor=#ffe6cc;strokeColor=#d79b00;" parent="CCFgdeYhnKsUGpOBp8zD-1" vertex="1">
          <mxGeometry x="1150" y="940" width="100" height="100" as="geometry" />
        </mxCell>
        <mxCell id="HtLL5q-RzL55egC5N3NP-16" value="A" style="strokeWidth=2;html=1;shape=mxgraph.flowchart.start_1;whiteSpace=wrap;fillColor=#ffe6cc;strokeColor=#d79b00;" parent="CCFgdeYhnKsUGpOBp8zD-1" vertex="1">
          <mxGeometry x="827" y="1090" width="100" height="60" as="geometry" />
        </mxCell>
        <mxCell id="HtLL5q-RzL55egC5N3NP-50" value="Sí" style="edgeStyle=orthogonalEdgeStyle;rounded=0;orthogonalLoop=1;jettySize=auto;html=1;exitX=0.5;exitY=1;exitDx=0;exitDy=0;exitPerimeter=0;entryX=0.5;entryY=0;entryDx=0;entryDy=0;fillColor=#e1d5e7;strokeColor=#9673a6;" parent="CCFgdeYhnKsUGpOBp8zD-1" source="HtLL5q-RzL55egC5N3NP-17" target="HtLL5q-RzL55egC5N3NP-19" edge="1">
          <mxGeometry relative="1" as="geometry" />
        </mxCell>
        <mxCell id="HtLL5q-RzL55egC5N3NP-17" value="Compra el medicamento" style="strokeWidth=2;html=1;shape=mxgraph.flowchart.decision;whiteSpace=wrap;fillColor=#e1d5e7;strokeColor=#9673a6;" parent="CCFgdeYhnKsUGpOBp8zD-1" vertex="1">
          <mxGeometry x="1010" y="80" width="100" height="100" as="geometry" />
        </mxCell>
        <mxCell id="HtLL5q-RzL55egC5N3NP-18" value="A" style="strokeWidth=2;html=1;shape=mxgraph.flowchart.start_1;whiteSpace=wrap;fillColor=#e1d5e7;strokeColor=#9673a6;" parent="CCFgdeYhnKsUGpOBp8zD-1" vertex="1">
          <mxGeometry x="1260" y="100" width="100" height="60" as="geometry" />
        </mxCell>
        <mxCell id="HtLL5q-RzL55egC5N3NP-53" style="edgeStyle=orthogonalEdgeStyle;rounded=0;orthogonalLoop=1;jettySize=auto;html=1;exitX=0.5;exitY=1;exitDx=0;exitDy=0;entryX=0.5;entryY=0;entryDx=0;entryDy=0;fillColor=#e1d5e7;strokeColor=#9673a6;" parent="CCFgdeYhnKsUGpOBp8zD-1" source="HtLL5q-RzL55egC5N3NP-19" target="HtLL5q-RzL55egC5N3NP-20" edge="1">
          <mxGeometry relative="1" as="geometry" />
        </mxCell>
        <mxCell id="HtLL5q-RzL55egC5N3NP-19" value="Adquirir la cantidad de medicamento solicitado" style="rounded=1;whiteSpace=wrap;html=1;absoluteArcSize=1;arcSize=14;strokeWidth=2;fillColor=#e1d5e7;strokeColor=#9673a6;" parent="CCFgdeYhnKsUGpOBp8zD-1" vertex="1">
          <mxGeometry x="1010" y="240" width="100" height="100" as="geometry" />
        </mxCell>
        <mxCell id="HtLL5q-RzL55egC5N3NP-54" style="edgeStyle=orthogonalEdgeStyle;rounded=0;orthogonalLoop=1;jettySize=auto;html=1;exitX=0.5;exitY=1;exitDx=0;exitDy=0;entryX=0.5;entryY=0;entryDx=0;entryDy=0;fillColor=#e1d5e7;strokeColor=#9673a6;" parent="CCFgdeYhnKsUGpOBp8zD-1" source="HtLL5q-RzL55egC5N3NP-20" target="HtLL5q-RzL55egC5N3NP-21" edge="1">
          <mxGeometry relative="1" as="geometry" />
        </mxCell>
        <mxCell id="HtLL5q-RzL55egC5N3NP-20" value="Registrar salida de medicamento" style="rounded=1;whiteSpace=wrap;html=1;absoluteArcSize=1;arcSize=14;strokeWidth=2;fillColor=#e1d5e7;strokeColor=#9673a6;" parent="CCFgdeYhnKsUGpOBp8zD-1" vertex="1">
          <mxGeometry x="1010" y="400" width="100" height="100" as="geometry" />
        </mxCell>
        <mxCell id="HtLL5q-RzL55egC5N3NP-55" style="edgeStyle=orthogonalEdgeStyle;rounded=0;orthogonalLoop=1;jettySize=auto;html=1;exitX=1;exitY=0.5;exitDx=0;exitDy=0;entryX=0;entryY=0.5;entryDx=0;entryDy=0;fillColor=#e1d5e7;strokeColor=#9673a6;" parent="CCFgdeYhnKsUGpOBp8zD-1" source="HtLL5q-RzL55egC5N3NP-21" target="HtLL5q-RzL55egC5N3NP-23" edge="1">
          <mxGeometry relative="1" as="geometry" />
        </mxCell>
        <mxCell id="HtLL5q-RzL55egC5N3NP-56" style="edgeStyle=orthogonalEdgeStyle;rounded=0;orthogonalLoop=1;jettySize=auto;html=1;exitX=0.5;exitY=1;exitDx=0;exitDy=0;fillColor=#e1d5e7;strokeColor=#9673a6;" parent="CCFgdeYhnKsUGpOBp8zD-1" source="HtLL5q-RzL55egC5N3NP-21" target="HtLL5q-RzL55egC5N3NP-22" edge="1">
          <mxGeometry relative="1" as="geometry" />
        </mxCell>
        <mxCell id="HtLL5q-RzL55egC5N3NP-21" value="Tipo de pago" style="rounded=1;whiteSpace=wrap;html=1;absoluteArcSize=1;arcSize=14;strokeWidth=2;fillColor=#e1d5e7;strokeColor=#9673a6;" parent="CCFgdeYhnKsUGpOBp8zD-1" vertex="1">
          <mxGeometry x="1010" y="570" width="100" height="100" as="geometry" />
        </mxCell>
        <mxCell id="HtLL5q-RzL55egC5N3NP-58" style="edgeStyle=orthogonalEdgeStyle;rounded=0;orthogonalLoop=1;jettySize=auto;html=1;exitX=1;exitY=0.5;exitDx=0;exitDy=0;fillColor=#e1d5e7;strokeColor=#9673a6;" parent="CCFgdeYhnKsUGpOBp8zD-1" source="HtLL5q-RzL55egC5N3NP-22" target="HtLL5q-RzL55egC5N3NP-24" edge="1">
          <mxGeometry relative="1" as="geometry" />
        </mxCell>
        <mxCell id="HtLL5q-RzL55egC5N3NP-22" value="Tarjeta" style="rounded=1;whiteSpace=wrap;html=1;absoluteArcSize=1;arcSize=14;strokeWidth=2;fillColor=#e1d5e7;strokeColor=#9673a6;" parent="CCFgdeYhnKsUGpOBp8zD-1" vertex="1">
          <mxGeometry x="1010" y="740" width="100" height="100" as="geometry" />
        </mxCell>
        <mxCell id="HtLL5q-RzL55egC5N3NP-57" style="edgeStyle=orthogonalEdgeStyle;rounded=0;orthogonalLoop=1;jettySize=auto;html=1;exitX=1;exitY=0.5;exitDx=0;exitDy=0;entryX=0.5;entryY=0;entryDx=0;entryDy=0;fillColor=#e1d5e7;strokeColor=#9673a6;" parent="CCFgdeYhnKsUGpOBp8zD-1" source="HtLL5q-RzL55egC5N3NP-23" target="HtLL5q-RzL55egC5N3NP-24" edge="1">
          <mxGeometry relative="1" as="geometry" />
        </mxCell>
        <mxCell id="HtLL5q-RzL55egC5N3NP-23" value="Efectivo" style="rounded=1;whiteSpace=wrap;html=1;absoluteArcSize=1;arcSize=14;strokeWidth=2;fillColor=#e1d5e7;strokeColor=#9673a6;" parent="CCFgdeYhnKsUGpOBp8zD-1" vertex="1">
          <mxGeometry x="1191" y="570" width="100" height="100" as="geometry" />
        </mxCell>
        <mxCell id="HtLL5q-RzL55egC5N3NP-24" value="Registro de compra" style="rounded=1;whiteSpace=wrap;html=1;absoluteArcSize=1;arcSize=14;strokeWidth=2;fillColor=#e1d5e7;strokeColor=#9673a6;" parent="CCFgdeYhnKsUGpOBp8zD-1" vertex="1">
          <mxGeometry x="1330" y="740" width="100" height="100" as="geometry" />
        </mxCell>
        <mxCell id="HtLL5q-RzL55egC5N3NP-60" value="No" style="edgeStyle=orthogonalEdgeStyle;rounded=0;orthogonalLoop=1;jettySize=auto;html=1;exitX=0.5;exitY=0;exitDx=0;exitDy=0;exitPerimeter=0;entryX=0.5;entryY=1;entryDx=0;entryDy=0;fillColor=#e1d5e7;strokeColor=#9673a6;" parent="CCFgdeYhnKsUGpOBp8zD-1" source="HtLL5q-RzL55egC5N3NP-25" target="HtLL5q-RzL55egC5N3NP-27" edge="1">
          <mxGeometry relative="1" as="geometry" />
        </mxCell>
        <mxCell id="HtLL5q-RzL55egC5N3NP-61" value="Sí" style="edgeStyle=orthogonalEdgeStyle;rounded=0;orthogonalLoop=1;jettySize=auto;html=1;exitX=1;exitY=0.5;exitDx=0;exitDy=0;exitPerimeter=0;entryX=0.5;entryY=1;entryDx=0;entryDy=0;fillColor=#e1d5e7;strokeColor=#9673a6;" parent="CCFgdeYhnKsUGpOBp8zD-1" source="HtLL5q-RzL55egC5N3NP-25" target="HtLL5q-RzL55egC5N3NP-26" edge="1">
          <mxGeometry relative="1" as="geometry" />
        </mxCell>
        <mxCell id="HtLL5q-RzL55egC5N3NP-25" value="¿Requiere factura?" style="strokeWidth=2;html=1;shape=mxgraph.flowchart.decision;whiteSpace=wrap;fillColor=#e1d5e7;strokeColor=#9673a6;" parent="CCFgdeYhnKsUGpOBp8zD-1" vertex="1">
          <mxGeometry x="1570" y="740" width="100" height="100" as="geometry" />
        </mxCell>
        <mxCell id="HtLL5q-RzL55egC5N3NP-62" style="edgeStyle=orthogonalEdgeStyle;rounded=0;orthogonalLoop=1;jettySize=auto;html=1;exitX=0.5;exitY=0;exitDx=0;exitDy=0;entryX=1;entryY=0.5;entryDx=0;entryDy=0;fillColor=#e1d5e7;strokeColor=#9673a6;" parent="CCFgdeYhnKsUGpOBp8zD-1" source="HtLL5q-RzL55egC5N3NP-26" target="HtLL5q-RzL55egC5N3NP-27" edge="1">
          <mxGeometry relative="1" as="geometry" />
        </mxCell>
        <mxCell id="HtLL5q-RzL55egC5N3NP-26" value="Pedir datos" style="rounded=1;whiteSpace=wrap;html=1;absoluteArcSize=1;arcSize=14;strokeWidth=2;fillColor=#e1d5e7;strokeColor=#9673a6;" parent="CCFgdeYhnKsUGpOBp8zD-1" vertex="1">
          <mxGeometry x="1820" y="640" width="100" height="100" as="geometry" />
        </mxCell>
        <mxCell id="HtLL5q-RzL55egC5N3NP-63" style="edgeStyle=orthogonalEdgeStyle;rounded=0;orthogonalLoop=1;jettySize=auto;html=1;exitX=0.5;exitY=0;exitDx=0;exitDy=0;entryX=0.5;entryY=1;entryDx=0;entryDy=0;fillColor=#e1d5e7;strokeColor=#9673a6;" parent="CCFgdeYhnKsUGpOBp8zD-1" source="HtLL5q-RzL55egC5N3NP-27" target="HtLL5q-RzL55egC5N3NP-28" edge="1">
          <mxGeometry relative="1" as="geometry" />
        </mxCell>
        <mxCell id="HtLL5q-RzL55egC5N3NP-27" value="Brindar indicaciones de consumo" style="rounded=1;whiteSpace=wrap;html=1;absoluteArcSize=1;arcSize=14;strokeWidth=2;fillColor=#e1d5e7;strokeColor=#9673a6;" parent="CCFgdeYhnKsUGpOBp8zD-1" vertex="1">
          <mxGeometry x="1570" y="550" width="100" height="100" as="geometry" />
        </mxCell>
        <mxCell id="HtLL5q-RzL55egC5N3NP-64" style="edgeStyle=orthogonalEdgeStyle;rounded=0;orthogonalLoop=1;jettySize=auto;html=1;exitX=0.5;exitY=0;exitDx=0;exitDy=0;entryX=0.5;entryY=1;entryDx=0;entryDy=0;fillColor=#e1d5e7;strokeColor=#9673a6;" parent="CCFgdeYhnKsUGpOBp8zD-1" source="HtLL5q-RzL55egC5N3NP-28" target="HtLL5q-RzL55egC5N3NP-29" edge="1">
          <mxGeometry relative="1" as="geometry" />
        </mxCell>
        <mxCell id="HtLL5q-RzL55egC5N3NP-28" value="Tiket" style="rounded=1;whiteSpace=wrap;html=1;absoluteArcSize=1;arcSize=14;strokeWidth=2;fillColor=#e1d5e7;strokeColor=#9673a6;" parent="CCFgdeYhnKsUGpOBp8zD-1" vertex="1">
          <mxGeometry x="1570" y="360" width="100" height="100" as="geometry" />
        </mxCell>
        <mxCell id="HtLL5q-RzL55egC5N3NP-29" value="Entrega de medicamento y comprobante" style="rounded=1;whiteSpace=wrap;html=1;absoluteArcSize=1;arcSize=14;strokeWidth=2;fillColor=#e1d5e7;strokeColor=#9673a6;" parent="CCFgdeYhnKsUGpOBp8zD-1" vertex="1">
          <mxGeometry x="1570" y="170" width="100" height="100" as="geometry" />
        </mxCell>
        <mxCell id="HtLL5q-RzL55egC5N3NP-30" value="Fin" style="strokeWidth=2;html=1;shape=mxgraph.flowchart.start_1;whiteSpace=wrap;fillColor=#e1d5e7;strokeColor=#9673a6;" parent="CCFgdeYhnKsUGpOBp8zD-1" vertex="1">
          <mxGeometry x="1570" y="20" width="100" height="60" as="geometry" />
        </mxCell>
        <mxCell id="HtLL5q-RzL55egC5N3NP-35" style="edgeStyle=orthogonalEdgeStyle;rounded=0;orthogonalLoop=1;jettySize=auto;html=1;exitX=0.5;exitY=1;exitDx=0;exitDy=0;entryX=0.5;entryY=0;entryDx=0;entryDy=0;entryPerimeter=0;fillColor=#dae8fc;strokeColor=#6c8ebf;" parent="CCFgdeYhnKsUGpOBp8zD-1" source="HtLL5q-RzL55egC5N3NP-4" target="HtLL5q-RzL55egC5N3NP-5" edge="1">
          <mxGeometry relative="1" as="geometry" />
        </mxCell>
        <mxCell id="HtLL5q-RzL55egC5N3NP-37" style="edgeStyle=orthogonalEdgeStyle;rounded=0;orthogonalLoop=1;jettySize=auto;html=1;exitX=0;exitY=0.5;exitDx=0;exitDy=0;entryX=0;entryY=0.5;entryDx=0;entryDy=0;entryPerimeter=0;fillColor=#dae8fc;strokeColor=#6c8ebf;" parent="CCFgdeYhnKsUGpOBp8zD-1" source="HtLL5q-RzL55egC5N3NP-3" target="HtLL5q-RzL55egC5N3NP-0" edge="1">
          <mxGeometry relative="1" as="geometry" />
        </mxCell>
        <mxCell id="HtLL5q-RzL55egC5N3NP-39" style="edgeStyle=orthogonalEdgeStyle;rounded=0;orthogonalLoop=1;jettySize=auto;html=1;exitX=1;exitY=0.5;exitDx=0;exitDy=0;entryX=0;entryY=0.5;entryDx=0;entryDy=0;entryPerimeter=0;fillColor=#d5e8d4;strokeColor=#82b366;" parent="CCFgdeYhnKsUGpOBp8zD-1" source="HtLL5q-RzL55egC5N3NP-6" target="HtLL5q-RzL55egC5N3NP-7" edge="1">
          <mxGeometry relative="1" as="geometry" />
        </mxCell>
        <mxCell id="HtLL5q-RzL55egC5N3NP-44" style="edgeStyle=orthogonalEdgeStyle;rounded=0;orthogonalLoop=1;jettySize=auto;html=1;exitX=1;exitY=0.5;exitDx=0;exitDy=0;entryX=0;entryY=0.5;entryDx=0;entryDy=0;entryPerimeter=0;fillColor=#ffe6cc;strokeColor=#d79b00;" parent="CCFgdeYhnKsUGpOBp8zD-1" source="HtLL5q-RzL55egC5N3NP-11" target="HtLL5q-RzL55egC5N3NP-13" edge="1">
          <mxGeometry relative="1" as="geometry" />
        </mxCell>
        <mxCell id="HtLL5q-RzL55egC5N3NP-45" value="No" style="edgeStyle=orthogonalEdgeStyle;rounded=0;orthogonalLoop=1;jettySize=auto;html=1;exitX=0.5;exitY=1;exitDx=0;exitDy=0;exitPerimeter=0;entryX=0;entryY=0.5;entryDx=0;entryDy=0;entryPerimeter=0;fillColor=#ffe6cc;strokeColor=#d79b00;" parent="CCFgdeYhnKsUGpOBp8zD-1" source="HtLL5q-RzL55egC5N3NP-13" target="HtLL5q-RzL55egC5N3NP-16" edge="1">
          <mxGeometry relative="1" as="geometry" />
        </mxCell>
        <mxCell id="HtLL5q-RzL55egC5N3NP-49" style="edgeStyle=orthogonalEdgeStyle;rounded=0;orthogonalLoop=1;jettySize=auto;html=1;exitX=1;exitY=0.5;exitDx=0;exitDy=0;entryX=0;entryY=0.5;entryDx=0;entryDy=0;entryPerimeter=0;fillColor=#e1d5e7;strokeColor=#9673a6;" parent="CCFgdeYhnKsUGpOBp8zD-1" source="HtLL5q-RzL55egC5N3NP-12" target="HtLL5q-RzL55egC5N3NP-17" edge="1">
          <mxGeometry relative="1" as="geometry" />
        </mxCell>
        <mxCell id="HtLL5q-RzL55egC5N3NP-51" value="No" style="edgeStyle=orthogonalEdgeStyle;rounded=0;orthogonalLoop=1;jettySize=auto;html=1;exitX=1;exitY=0.5;exitDx=0;exitDy=0;exitPerimeter=0;entryX=0;entryY=0.5;entryDx=0;entryDy=0;entryPerimeter=0;fillColor=#e1d5e7;strokeColor=#9673a6;" parent="CCFgdeYhnKsUGpOBp8zD-1" source="HtLL5q-RzL55egC5N3NP-17" target="HtLL5q-RzL55egC5N3NP-18" edge="1">
          <mxGeometry relative="1" as="geometry" />
        </mxCell>
        <mxCell id="HtLL5q-RzL55egC5N3NP-59" style="edgeStyle=orthogonalEdgeStyle;rounded=0;orthogonalLoop=1;jettySize=auto;html=1;exitX=1;exitY=0.5;exitDx=0;exitDy=0;entryX=0;entryY=0.5;entryDx=0;entryDy=0;entryPerimeter=0;fillColor=#e1d5e7;strokeColor=#9673a6;" parent="CCFgdeYhnKsUGpOBp8zD-1" source="HtLL5q-RzL55egC5N3NP-24" target="HtLL5q-RzL55egC5N3NP-25" edge="1">
          <mxGeometry relative="1" as="geometry" />
        </mxCell>
        <mxCell id="HtLL5q-RzL55egC5N3NP-65" style="edgeStyle=orthogonalEdgeStyle;rounded=0;orthogonalLoop=1;jettySize=auto;html=1;exitX=0.5;exitY=0;exitDx=0;exitDy=0;entryX=0.5;entryY=1;entryDx=0;entryDy=0;entryPerimeter=0;fillColor=#e1d5e7;strokeColor=#9673a6;" parent="CCFgdeYhnKsUGpOBp8zD-1" source="HtLL5q-RzL55egC5N3NP-29" target="HtLL5q-RzL55egC5N3NP-30" edge="1">
          <mxGeometry relative="1" as="geometry" />
        </mxCell>
        <mxCell id="HtLL5q-RzL55egC5N3NP-66" value="Finanzas" style="text;html=1;align=center;verticalAlign=middle;whiteSpace=wrap;rounded=0;fillColor=#f8cecc;strokeColor=#b85450;" parent="CCFgdeYhnKsUGpOBp8zD-1" vertex="1">
          <mxGeometry x="-140" y="120" width="60" height="30" as="geometry" />
        </mxCell>
        <mxCell id="HtLL5q-RzL55egC5N3NP-67" value="RRHH" style="text;html=1;align=center;verticalAlign=middle;whiteSpace=wrap;rounded=0;strokeColor=default;" parent="CCFgdeYhnKsUGpOBp8zD-1" vertex="1">
          <mxGeometry x="-140" y="205" width="60" height="30" as="geometry" />
        </mxCell>
        <mxCell id="HtLL5q-RzL55egC5N3NP-68" value="RRMM" style="text;html=1;align=center;verticalAlign=middle;whiteSpace=wrap;rounded=0;fillColor=#bac8d3;strokeColor=#23445d;" parent="CCFgdeYhnKsUGpOBp8zD-1" vertex="1">
          <mxGeometry x="-140" y="290" width="60" height="30" as="geometry" />
        </mxCell>
        <mxCell id="HtLL5q-RzL55egC5N3NP-69" value="" style="endArrow=none;dashed=1;html=1;rounded=0;" parent="CCFgdeYhnKsUGpOBp8zD-1" edge="1">
          <mxGeometry width="50" height="50" relative="1" as="geometry">
            <mxPoint x="-170" y="170" as="sourcePoint" />
            <mxPoint x="-50" y="170" as="targetPoint" />
          </mxGeometry>
        </mxCell>
        <mxCell id="HtLL5q-RzL55egC5N3NP-70" value="" style="endArrow=none;dashed=1;html=1;rounded=0;" parent="CCFgdeYhnKsUGpOBp8zD-1" edge="1">
          <mxGeometry width="50" height="50" relative="1" as="geometry">
            <mxPoint x="-170" y="260" as="sourcePoint" />
            <mxPoint x="-50" y="260" as="targetPoint" />
          </mxGeometry>
        </mxCell>
        <mxCell id="HtLL5q-RzL55egC5N3NP-73" value="Módulo 1" style="strokeWidth=2;html=1;shape=mxgraph.flowchart.display;whiteSpace=wrap;fillColor=#f8cecc;strokeColor=#b85450;" parent="CCFgdeYhnKsUGpOBp8zD-1" vertex="1">
          <mxGeometry x="-450" y="80" width="100" height="60" as="geometry" />
        </mxCell>
        <mxCell id="HtLL5q-RzL55egC5N3NP-74" value="Módulo 2" style="strokeWidth=2;html=1;shape=mxgraph.flowchart.display;whiteSpace=wrap;" parent="CCFgdeYhnKsUGpOBp8zD-1" vertex="1">
          <mxGeometry x="-450" y="175" width="100" height="60" as="geometry" />
        </mxCell>
        <mxCell id="HtLL5q-RzL55egC5N3NP-75" value="Módulo 3" style="strokeWidth=2;html=1;shape=mxgraph.flowchart.display;whiteSpace=wrap;fillColor=#bac8d3;strokeColor=#23445d;" parent="CCFgdeYhnKsUGpOBp8zD-1" vertex="1">
          <mxGeometry x="-450" y="270" width="100" height="60" as="geometry" />
        </mxCell>
        <mxCell id="HtLL5q-RzL55egC5N3NP-76" value="Módulo 4" style="strokeWidth=2;html=1;shape=mxgraph.flowchart.display;whiteSpace=wrap;fillColor=#dae8fc;strokeColor=#6c8ebf;" parent="CCFgdeYhnKsUGpOBp8zD-1" vertex="1">
          <mxGeometry x="-450" y="370" width="100" height="60" as="geometry" />
        </mxCell>
        <mxCell id="HtLL5q-RzL55egC5N3NP-77" value="Módulo 5" style="strokeWidth=2;html=1;shape=mxgraph.flowchart.display;whiteSpace=wrap;fillColor=#d5e8d4;strokeColor=#82b366;" parent="CCFgdeYhnKsUGpOBp8zD-1" vertex="1">
          <mxGeometry x="-450" y="470" width="100" height="60" as="geometry" />
        </mxCell>
        <mxCell id="HtLL5q-RzL55egC5N3NP-78" value="Módulo 6" style="strokeWidth=2;html=1;shape=mxgraph.flowchart.display;whiteSpace=wrap;fillColor=#e1d5e7;strokeColor=#9673a6;" parent="CCFgdeYhnKsUGpOBp8zD-1" vertex="1">
          <mxGeometry x="-450" y="570" width="100" height="60" as="geometry" />
        </mxCell>
        <mxCell id="HtLL5q-RzL55egC5N3NP-79" value="Módulo 7" style="strokeWidth=2;html=1;shape=mxgraph.flowchart.display;whiteSpace=wrap;fillColor=#ffe6cc;strokeColor=#d79b00;" parent="CCFgdeYhnKsUGpOBp8zD-1" vertex="1">
          <mxGeometry x="-450" y="670" width="100" height="60" as="geometry" />
        </mxCell>
      </root>
    </mxGraphModel>
  </diagram>
</mxfile>
